<?xml version="1.0" standalone="no"?>
<!DOCTYPE svg PUBLIC "-//W3C//DTD SVG 20010904//EN"
 "http://www.w3.org/TR/2001/REC-SVG-20010904/DTD/svg10.dtd">
<svg version="1.0" xmlns="http://www.w3.org/2000/svg"
 width="280.000000pt" height="280.000000pt" viewBox="0 0 280.000000 280.000000"
 preserveAspectRatio="xMidYMid meet">
<metadata>
Created by potrace 1.11, written by Peter Selinger 2001-2013
</metadata>
<g transform="translate(0.000000,280.000000) scale(0.100000,-0.100000)"
fill="#000000" stroke="none">
<path d="M1278 2795 c-2 -1 -28 -6 -58 -9 -168 -20 -395 -98 -543 -188 -191
-116 -359 -285 -479 -484 -79 -129 -155 -332 -173 -464 -4 -25 -10 -64 -14
-87 -9 -47 -7 -314 2 -353 4 -14 9 -41 12 -60 10 -72 55 -218 93 -307 92 -211
229 -390 411 -535 73 -58 175 -128 188 -128 3 0 14 -6 22 -14 23 -19 204 -90
297 -116 120 -32 250 -47 397 -44 482 9 919 263 1169 679 80 133 158 339 173
459 3 17 9 60 14 96 11 78 6 303 -8 380 -56 313 -190 570 -407 782 -205 200
-456 327 -749 378 -61 11 -338 23 -347 15z"/>
</g>
</svg>
